{"title":"The Aryan Couple-AC3-5,1-DVDRip[Eng]2004","uid":5022442,"size":1489876014,"categoryP":"video","categoryS":"movies","magnet":"?xt=urn:btih:e81e1da1a4b332c1d8e12e6827b192551b126019&amp;dn=The+Aryan+Couple-AC3-5%2C1-DVDRip%5BEng%5D2004&amp;tr=udp%3A%2F%2Ftracker.openbittorrent.com%3A80&amp;tr=udp%3A%2F%2Fopen.demonii.com%3A1337&amp;tr=udp%3A%2F%2Ftracker.coppersurfer.tk%3A6969&amp;tr=udp%3A%2F%2Fexodus.desync.com%3A6969","seeders":1,"leechers":0,"uploader":"FatFreddy31","files":-1,"time":1248534668,"description":" &lt;a href=&quot;http://www.imdb.com/title/tt0407536/&quot; rel=&quot;nofollow&quot; target=&quot;_NEW&quot;&gt;http://www.imdb.com/title/tt0407536/&lt;/a&gt;\n\nUser Rating:5.9/10 - 336 votes\n\nDrama/War\n\nDirector:John Daly\n\nCast:Martin Landau/Danny Webb/Judy Parfitt/Kenny Doughty, and others.\n\nPlot:\nA WWII Drama about a German/Jewish industrialist who, in order to ensure his family's safe passage out of Germany, is forced to hand over his business to the Nazis.\n\nInfo:\n\nCovers included.\n\nGeneral\nComplete name                    : The Aryan Couple-AC3-5,1-DVDRip[Eng]2004.avi\nFormat                           : AVI\nFormat/Info                      : Audio Video Interleave\nFile size                        : 1.39 GiB\nDuration                         : 1h 54mn\nOverall bit rate                 : 1 729 Kbps\nWriting application              : VirtualDubMod 1.5.4.1 (build 2178/release)\nWriting library                  : VirtualDubMod build 2178/release\n\nVideo\nFormat                           : MPEG-4 Visual\nFormat profile                   : Simple@L3\nFormat settings, BVOP            : No\nFormat settings, QPel            : No\nFormat settings, GMC             : No warppoints\nFormat settings, Matrix          : Default\nCodec ID                         : XVID\nCodec ID/Hint                    : XviD\nDuration                         : 1h 54mn\nBit rate                         : 1 273 Kbps\nWidth                            : 720 pixels\nHeight                           : 416 pixels\nDisplay aspect ratio             : 16/9\nFrame rate                       : 25.000 fps\nResolution                       : 24 bits\nColorimetry                      : 4:2:0\nScan type                        : Progressive\nBits/(Pixel*Frame)               : 0.170\nStream size                      : 1.02 GiB (74%)\nWriting library                  : XviD 50\n\nAudio\nFormat                           : AC-3\nFormat/Info                      : Audio Coding 3\nCodec ID                         : 2000\nDuration                         : 1h 54mn\nBit rate mode                    : Constant\nBit rate                         : 448 Kbps\nChannel(s)                       : 6 channels\nChannel positions                : Front: L C R, Surround: L R, LFE\nSampling rate                    : 48.0 KHz\nStream size                      : 368 MiB (26%)\nAlignment                        : Split accross interleaves\nInterleave, duration             : 80 ms (2.00 video frames)\nInterleave, preload duration     : 500 ms\nLanguage                         : English\n\nEnjoy...","torrent":{"xt":"urn:btih:e81e1da1a4b332c1d8e12e6827b192551b126019","amp;dn":"The+Aryan+Couple-AC3-5%2C1-DVDRip%5BEng%5D2004","amp;tr":["udp%3A%2F%2Ftracker.openbittorrent.com%3A80","udp%3A%2F%2Fopen.demonii.com%3A1337","udp%3A%2F%2Ftracker.coppersurfer.tk%3A6969","udp%3A%2F%2Fexodus.desync.com%3A6969"],"infoHash":"e81e1da1a4b332c1d8e12e6827b192551b126019","infoHashBuffer":{"type":"Buffer","data":[232,30,29,161,164,179,50,193,216,225,46,104,39,177,146,85,27,18,96,25]},"announce":[],"urlList":[]}}